#!OML:ASF E:\Style4\Style4.ASF
:FULLY-SPECIFIED
:DEGREES
2451
root 0.162247 17.4675 -1.73196 14.2259 -2.55311 2.4947
lowerback 19.1127 2.50069 -0.599607
upperback 12.4495 3.1178 0.74418
thorax 2.671 1.48911 0.618116
lowerneck -2.63504 -4.73846 -6.1561
upperneck 28.4281 -5.4899 -0.683951
head 9.56756 -3.14197 0.349672
rclavicle -2.54444e-014 1.59028e-015
rhumerus 46.0323 21.2245 -38.2995
rradius 82.0879
rwrist -89.6189
rhand -33.8505 -4.94032
rfingers 7.12502
rthumb -7.03528 -34.8034
lclavicle -2.54444e-014 1.59028e-015
lhumerus 50.1261 -24.2586 38.6437
lradius 85.3497
lwrist 86.6445
lhand -17.6861 51.87
lfingers 7.12502
lthumb 8.57325 81.6759
rfemur -40.8056 -5.15756 17.7339
rtibia 44.8966
rfoot -15.9142 -15.263
rtoes -11.4803
lfemur -38.6515 2.52536 -22.1357
ltibia 42.4411
lfoot -17.8577 11.7843
ltoes -16.6093
2452
root 0.163335 17.4439 -1.7329 14.2769 -2.53394 2.63184
lowerback 19.2264 2.45379 -0.746154
upperback 12.4942 3.03486 0.767622
thorax 2.65604 1.4381 0.735421
lowerneck -2.59641 -4.67534 -6.29073
upperneck 28.2281 -5.39405 -0.676405
head 9.49058 -3.1094 0.387098
rclavicle -1.59028e-015 5.56597e-015
rhumerus 45.3044 21.9196 -38.5964
rradius 83.0807
rwrist -89.418
rhand -34.2427 -4.50158
rfingers 7.12502
rthumb -7.41382 -34.3517
lclavicle -1.59028e-015 5.56597e-015
lhumerus 49.2206 -24.66 39.1208
lradius 86.4053
lwrist 86.5115
lhand -17.8485 51.8056
lfingers 7.12502
lthumb 8.41655 81.6179
rfemur -41.1521 -5.20987 17.5958
rtibia 45.3732
rfoot -16.1074 -15.2618
rtoes -11.762
lfemur -38.9738 2.54008 -22.3066
ltibia 42.8722
lfoot -18.0267 11.6915
ltoes -16.726
2453
root 0.161309 17.4185 -1.73931 14.498 -2.41444 2.13945
lowerback 19.3048 2.37061 -0.244227
upperback 12.4616 3.00005 0.918561
thorax 2.597 1.44326 0.615379
lowerneck -2.47252 -4.6307 -6.36536
upperneck 27.9589 -5.33626 -0.672832
head 9.37153 -3.08766 0.412594
rclavicle 2.06736e-014 6.36111e-015
rhumerus 44.503 22.4819 -38.9193
rradius 83.8878
rwrist -88.4963
rhand -34.0538 -4.71067
rfingers 7.12502
rthumb -7.23147 -34.5671
lclavicle 2.06736e-014 6.36111e-015
lhumerus 48.3524 -25.1976 39.6079
lradius 87.4466
lwrist 86.2644
lhand -17.9729 51.7396
lfingers 7.12502
lthumb 8.29649 81.5567
rfemur -41.6071 -5.04964 18.1715
rtibia 45.764
rfoot -16.2756 -15.3764
rtoes -11.3786
lfemur -39.5807 2.68513 -21.7678
ltibia 43.3996
lfoot -18.0773 11.5324
ltoes -16.5365
2454
root 0.162281 17.395 -1.74041 14.6675 -2.32613 1.79424
lowerback 19.3344 2.32779 0.21112
upperback 12.4767 3.01103 0.982026
thorax 2.61825 1.47216 0.424831
lowerneck -2.54492 -4.65383 -6.33664
upperneck 27.8761 -5.37766 -0.630348
head 9.35631 -3.09856 0.417817
rclavicle -7.95139e-016 -2.38542e-015
rhumerus 43.581 22.8349 -39.1168
rradius 85.0406
rwrist -88.589
rhand -34.4433 -4.09723
rfingers 7.12502
rthumb -7.60746 -33.9404
lclavicle -7.95139e-016 -2.38542e-015
lhumerus 47.6486 -25.8035 40.0036
lradius 88.48
lwrist 85.9761
lhand -18.1199 51.6766
lfingers 7.12502
lthumb 8.15457 81.4993
rfemur -41.974 -4.97087 18.574
rtibia 46.1139
rfoot -16.5328 -15.3724
rtoes -10.4685
lfemur -40.0914 2.80037 -21.4046
ltibia 43.9492
lfoot -18.3006 11.3672
ltoes -16.3939
2455
root 0.164922 17.374 -1.73625 14.7252 -2.34116 1.76162
lowerback 19.414 2.32661 0.346792
upperback 12.5085 3.02856 0.958607
thorax 2.62187 1.48961 0.319026
lowerneck -2.71058 -4.66613 -6.23778
upperneck 27.9207 -5.39184 -0.64267
head 9.39913 -3.0965 0.390941
rclavicle -3.97569e-015 -7.95139e-016
rhumerus 42.5205 23.1539 -39.5665
rradius 85.9745
rwrist -87.7086
rhand -34.2551 -4.26058
rfingers 7.12502
rthumb -7.42576 -34.1103
lclavicle -3.97569e-015 -7.95139e-016
lhumerus 46.9028 -26.4349 40.5584
lradius 89.4341
lwrist 85.523
lhand -18.3047 51.6221
lfingers 7.12502
lthumb 7.97626 81.4516
rfemur -42.2247 -4.99793 18.6115
rtibia 46.4748
rfoot -16.7997 -15.225
rtoes -9.79589
lfemur -40.3977 2.8638 -21.3932
ltibia 44.4299
lfoot -18.5553 11.1618
ltoes -15.7049
2456
root 0.168078 17.3538 -1.73179 14.7755 -2.37004 1.83931
lowerback 19.5893 2.2771 0.274512
upperback 12.462 2.95435 0.946076
thorax 2.4796 1.44854 0.35033
lowerneck -2.7068 -4.59457 -6.28836
upperneck 27.8348 -5.28964 -0.646065
head 9.36612 -3.055 0.408585
rclavicle -8.74653e-015 -2.38542e-015
rhumerus 41.5817 23.833 -40.0489
rradius 86.9355
rwrist -86.7865
rhand -34.0911 -4.11649
rfingers 7.12502
rthumb -7.26748 -33.9717
lclavicle -8.74653e-015 -2.38542e-015
lhumerus 45.9652 -27.0086 41.2106
lradius 90.3319
lwrist 84.9396
lhand -18.494 51.4191
lfingers 7.12502
lthumb 7.79352 81.2555
rfemur -42.5061 -5.09722 18.5519
rtibia 46.8804
rfoot -16.9612 -15.1525
rtoes -9.78551
lfemur -40.6567 2.905 -21.5069
ltibia 44.8181
lfoot -18.6269 11.1086
ltoes -15.8163
2457
root 0.172193 17.3357 -1.72935 14.8604 -2.33755 2.00526
lowerback 19.7446 2.19132 0.138647
upperback 12.3835 2.82462 0.88865
thorax 2.31182 1.37851 0.379659
lowerneck -2.61574 -4.51006 -6.23632
upperneck 27.6513 -5.18307 -0.677185
head 9.27681 -3.00365 0.403224
rclavicle -4.92986e-014 1.35174e-014
rhumerus 40.7456 24.603 -40.5698
rradius 87.8871
rwrist -86.053
rhand -34.1313 -3.73964
rfingers 7.12502
rthumb -7.30634 -33.5935
lclavicle -4.92986e-014 1.35174e-014
lhumerus 44.9199 -27.5315 41.687
lradius 91.3341
lwrist 84.4631
lhand -18.7141 51.089
lfingers 7.12502
lthumb 7.58107 80.9331
rfemur -42.8385 -5.26138 18.4208
rtibia 47.2998
rfoot -17.1073 -15.1579
rtoes -10.1252
lfemur -40.9455 2.83926 -21.7026
ltibia 45.1652
lfoot -18.6996 11.1803
ltoes -16.5759
